<mxfile host="app.diagrams.net" modified="2024-07-13T23:32:29.712Z" agent="Mozilla/5.0 (Windows NT 10.0; Win64; x64) AppleWebKit/537.36 (KHTML, like Gecko) Chrome/126.0.0.0 Safari/537.36" etag="EUImbu5l0pmwD6bErkAm" version="24.6.5" type="device">
  <diagram name="PÃ¡gina-1" id="f7Fjku0jLVbjOb7Dt4-Z">
    <mxGraphModel dx="2261" dy="792" grid="1" gridSize="10" guides="1" tooltips="1" connect="1" arrows="1" fold="1" page="1" pageScale="1" pageWidth="827" pageHeight="1169" math="0" shadow="0">
      <root>
        <mxCell id="0" />
        <mxCell id="1" parent="0" />
        <mxCell id="abEW1Ngr814ih2O3mXqW-25" style="edgeStyle=orthogonalEdgeStyle;rounded=0;orthogonalLoop=1;jettySize=auto;html=1;" edge="1" parent="1" source="abEW1Ngr814ih2O3mXqW-1" target="abEW1Ngr814ih2O3mXqW-6">
          <mxGeometry relative="1" as="geometry" />
        </mxCell>
        <mxCell id="abEW1Ngr814ih2O3mXqW-26" style="edgeStyle=orthogonalEdgeStyle;rounded=0;orthogonalLoop=1;jettySize=auto;html=1;" edge="1" parent="1" source="abEW1Ngr814ih2O3mXqW-1" target="abEW1Ngr814ih2O3mXqW-4">
          <mxGeometry relative="1" as="geometry" />
        </mxCell>
        <mxCell id="abEW1Ngr814ih2O3mXqW-27" style="edgeStyle=orthogonalEdgeStyle;rounded=0;orthogonalLoop=1;jettySize=auto;html=1;" edge="1" parent="1" source="abEW1Ngr814ih2O3mXqW-1" target="abEW1Ngr814ih2O3mXqW-2">
          <mxGeometry relative="1" as="geometry" />
        </mxCell>
        <mxCell id="abEW1Ngr814ih2O3mXqW-28" style="edgeStyle=orthogonalEdgeStyle;rounded=0;orthogonalLoop=1;jettySize=auto;html=1;" edge="1" parent="1" source="abEW1Ngr814ih2O3mXqW-1" target="abEW1Ngr814ih2O3mXqW-5">
          <mxGeometry relative="1" as="geometry" />
        </mxCell>
        <mxCell id="abEW1Ngr814ih2O3mXqW-1" value="Api" style="rounded=0;whiteSpace=wrap;html=1;" vertex="1" parent="1">
          <mxGeometry x="-500" y="390" width="120" height="60" as="geometry" />
        </mxCell>
        <mxCell id="abEW1Ngr814ih2O3mXqW-2" value="Exception" style="rounded=0;whiteSpace=wrap;html=1;" vertex="1" parent="1">
          <mxGeometry x="-270" y="390" width="120" height="60" as="geometry" />
        </mxCell>
        <mxCell id="abEW1Ngr814ih2O3mXqW-3" value="Domain" style="rounded=0;whiteSpace=wrap;html=1;" vertex="1" parent="1">
          <mxGeometry x="-500" y="100" width="120" height="60" as="geometry" />
        </mxCell>
        <mxCell id="abEW1Ngr814ih2O3mXqW-4" value="Communication" style="rounded=0;whiteSpace=wrap;html=1;" vertex="1" parent="1">
          <mxGeometry x="-720" y="390" width="120" height="60" as="geometry" />
        </mxCell>
        <mxCell id="abEW1Ngr814ih2O3mXqW-29" style="edgeStyle=orthogonalEdgeStyle;rounded=0;orthogonalLoop=1;jettySize=auto;html=1;" edge="1" parent="1" source="abEW1Ngr814ih2O3mXqW-6" target="abEW1Ngr814ih2O3mXqW-3">
          <mxGeometry relative="1" as="geometry" />
        </mxCell>
        <mxCell id="abEW1Ngr814ih2O3mXqW-30" style="edgeStyle=orthogonalEdgeStyle;rounded=0;orthogonalLoop=1;jettySize=auto;html=1;" edge="1" parent="1" source="abEW1Ngr814ih2O3mXqW-6" target="abEW1Ngr814ih2O3mXqW-4">
          <mxGeometry relative="1" as="geometry" />
        </mxCell>
        <mxCell id="abEW1Ngr814ih2O3mXqW-31" style="edgeStyle=orthogonalEdgeStyle;rounded=0;orthogonalLoop=1;jettySize=auto;html=1;" edge="1" parent="1" source="abEW1Ngr814ih2O3mXqW-6" target="abEW1Ngr814ih2O3mXqW-2">
          <mxGeometry relative="1" as="geometry" />
        </mxCell>
        <mxCell id="abEW1Ngr814ih2O3mXqW-6" value="Application" style="rounded=0;whiteSpace=wrap;html=1;" vertex="1" parent="1">
          <mxGeometry x="-500" y="230" width="120" height="60" as="geometry" />
        </mxCell>
        <mxCell id="abEW1Ngr814ih2O3mXqW-32" style="edgeStyle=orthogonalEdgeStyle;rounded=0;orthogonalLoop=1;jettySize=auto;html=1;entryX=1;entryY=0.5;entryDx=0;entryDy=0;" edge="1" parent="1" source="abEW1Ngr814ih2O3mXqW-5" target="abEW1Ngr814ih2O3mXqW-3">
          <mxGeometry relative="1" as="geometry">
            <mxPoint x="-100" y="120" as="targetPoint" />
            <Array as="points">
              <mxPoint x="-70" y="585" />
              <mxPoint x="-70" y="130" />
            </Array>
          </mxGeometry>
        </mxCell>
        <mxCell id="abEW1Ngr814ih2O3mXqW-5" value="Infrastructure" style="rounded=0;whiteSpace=wrap;html=1;" vertex="1" parent="1">
          <mxGeometry x="-500" y="555" width="120" height="60" as="geometry" />
        </mxCell>
      </root>
    </mxGraphModel>
  </diagram>
</mxfile>
